TITLE ""
FILE "Step2_Track58.mp3" MP3
  TRACK 01 AUDIO
    TITLE "Step2_Track58_001"
    INDEX 01 00:00:00
  TRACK 02 AUDIO
    TITLE "Step2_Track58_002"
    INDEX 01 00:00:24
  TRACK 03 AUDIO
    TITLE "Step2_Track58_003"
    INDEX 01 00:01:72
  TRACK 04 AUDIO
    TITLE "Step2_Track58_004"
    INDEX 01 00:02:52
  TRACK 05 AUDIO
    TITLE "Step2_Track58_005"
    INDEX 01 00:04:04
  TRACK 06 AUDIO
    TITLE "Step2_Track58_006"
    INDEX 01 00:04:37
  TRACK 07 AUDIO
    TITLE "Step2_Track58_007"
    INDEX 01 00:06:13
  TRACK 08 AUDIO
    TITLE "Step2_Track58_008"
    INDEX 01 00:06:64
  TRACK 09 AUDIO
    TITLE "Step2_Track58_009"
    INDEX 01 00:08:14
  TRACK 10 AUDIO
    TITLE "Step2_Track58_010"
    INDEX 01 00:08:27
  TRACK 11 AUDIO
    TITLE "Step2_Track58_011"
    INDEX 01 00:10:69
  TRACK 12 AUDIO
    TITLE "Step2_Track58_012"
    INDEX 01 00:11:39
  TRACK 13 AUDIO
    TITLE "Step2_Track58_013"
    INDEX 01 00:13:03
  TRACK 14 AUDIO
    TITLE "Step2_Track58_014"
    INDEX 01 00:13:38
  TRACK 15 AUDIO
    TITLE "Step2_Track58_015"
    INDEX 01 00:15:31
  TRACK 16 AUDIO
    TITLE "Step2_Track58_016"
    INDEX 01 00:16:03
  TRACK 17 AUDIO
    TITLE "Step2_Track58_017"
    INDEX 01 00:17:34
  TRACK 18 AUDIO
    TITLE "Step2_Track58_018"
    INDEX 01 00:17:64
  TRACK 19 AUDIO
    TITLE "Step2_Track58_019"
    INDEX 01 00:19:63
  TRACK 20 AUDIO
    TITLE "Step2_Track58_020"
    INDEX 01 00:20:37
  TRACK 21 AUDIO
    TITLE "Step2_Track58_021"
    INDEX 01 00:21:67
  TRACK 22 AUDIO
    TITLE "Step2_Track58_022"
    INDEX 01 00:22:28
  TRACK 23 AUDIO
    TITLE "Step2_Track58_023"
    INDEX 01 00:24:15
  TRACK 24 AUDIO
    TITLE "Step2_Track58_024"
    INDEX 01 00:24:66
  TRACK 25 AUDIO
    TITLE "Step2_Track58_025"
    INDEX 01 00:26:21
  TRACK 26 AUDIO
    TITLE "Step2_Track58_026"
    INDEX 01 00:26:45
  TRACK 27 AUDIO
    TITLE "Step2_Track58_027"
    INDEX 01 00:29:28
  TRACK 28 AUDIO
    TITLE "Step2_Track58_028"
    INDEX 01 00:30:13
  TRACK 29 AUDIO
    TITLE "Step2_Track58_029"
    INDEX 01 00:31:52
  TRACK 30 AUDIO
    TITLE "Step2_Track58_030"
    INDEX 01 00:32:06
  TRACK 31 AUDIO
    TITLE "Step2_Track58_031"
    INDEX 01 00:34:03
  TRACK 32 AUDIO
    TITLE "Step2_Track58_032"
    INDEX 01 00:34:62
  TRACK 33 AUDIO
    TITLE "Step2_Track58_033"
    INDEX 01 00:35:75
  TRACK 34 AUDIO
    TITLE "Step2_Track58_034"
    INDEX 01 00:36:37
  TRACK 35 AUDIO
    TITLE "Step2_Track58_035"
    INDEX 01 00:37:72
  TRACK 36 AUDIO
    TITLE "Step2_Track58_036"
    INDEX 01 00:38:46
  TRACK 37 AUDIO
    TITLE "Step2_Track58_037"
    INDEX 01 00:40:08
  TRACK 38 AUDIO
    TITLE "Step2_Track58_038"
    INDEX 01 00:40:31
  TRACK 39 AUDIO
    TITLE "Step2_Track58_039"
    INDEX 01 00:42:22
  TRACK 40 AUDIO
    TITLE "Step2_Track58_040"
    INDEX 01 00:43:04
  TRACK 41 AUDIO
    TITLE "Step2_Track58_041"
    INDEX 01 00:44:33
  TRACK 42 AUDIO
    TITLE "Step2_Track58_042"
    INDEX 01 00:44:64
  TRACK 43 AUDIO
    TITLE "Step2_Track58_043"
    INDEX 01 00:47:10
  TRACK 44 AUDIO
    TITLE "Step2_Track58_044"
    INDEX 01 00:47:67
  TRACK 45 AUDIO
    TITLE "Step2_Track58_045"
    INDEX 01 00:49:24
  TRACK 46 AUDIO
    TITLE "Step2_Track58_046"
    INDEX 01 00:49:64
  TRACK 47 AUDIO
    TITLE "Step2_Track58_047"
    INDEX 01 00:52:25
  TRACK 48 AUDIO
    TITLE "Step2_Track58_048"
    INDEX 01 00:53:09
  TRACK 49 AUDIO
    TITLE "Step2_Track58_049"
    INDEX 01 00:54:31
  TRACK 50 AUDIO
    TITLE "Step2_Track58_050"
    INDEX 01 00:54:67
  TRACK 51 AUDIO
    TITLE "Step2_Track58_051"
    INDEX 01 00:56:40
  TRACK 52 AUDIO
    TITLE "Step2_Track58_052"
    INDEX 01 00:57:20
  TRACK 53 AUDIO
    TITLE "Step2_Track58_053"
    INDEX 01 00:58:70
  TRACK 54 AUDIO
    TITLE "Step2_Track58_054"
    INDEX 01 00:59:19
  TRACK 55 AUDIO
    TITLE "Step2_Track58_055"
    INDEX 01 01:02:06
  TRACK 56 AUDIO
    TITLE "Step2_Track58_056"
    INDEX 01 01:02:56
  TRACK 57 AUDIO
    TITLE "Step2_Track58_057"
    INDEX 01 01:04:32
  TRACK 58 AUDIO
    TITLE "Step2_Track58_058"
    INDEX 01 01:04:63
  TRACK 59 AUDIO
    TITLE "Step2_Track58_059"
    INDEX 01 01:07:30
  TRACK 60 AUDIO
    TITLE "Step2_Track58_060"
    INDEX 01 01:08:16
  TRACK 61 AUDIO
    TITLE "Step2_Track58_061"
    INDEX 01 01:09:66
  TRACK 62 AUDIO
    TITLE "Step2_Track58_062"
    INDEX 01 01:10:31
  TRACK 63 AUDIO
    TITLE "Step2_Track58_063"
    INDEX 01 01:12:57
  TRACK 64 AUDIO
    TITLE "Step2_Track58_064"
    INDEX 01 01:13:43
  TRACK 65 AUDIO
    TITLE "Step2_Track58_065"
    INDEX 01 01:15:18
  TRACK 66 AUDIO
    TITLE "Step2_Track58_066"
    INDEX 01 01:15:43
  TRACK 67 AUDIO
    TITLE "Step2_Track58_067"
    INDEX 01 01:18:06
  TRACK 68 AUDIO
    TITLE "Step2_Track58_068"
    INDEX 01 01:18:63
  TRACK 69 AUDIO
    TITLE "Step2_Track58_069"
    INDEX 01 01:20:45
  TRACK 70 AUDIO
    TITLE "Step2_Track58_070"
    INDEX 01 01:21:09
  TRACK 71 AUDIO
    TITLE "Step2_Track58_071"
    INDEX 01 01:23:16
  TRACK 72 AUDIO
    TITLE "Step2_Track58_072"
    INDEX 01 01:24:01
  TRACK 73 AUDIO
    TITLE "Step2_Track58_073"
    INDEX 01 01:25:42
  TRACK 74 AUDIO
    TITLE "Step2_Track58_074"
    INDEX 01 01:25:73
  TRACK 75 AUDIO
    TITLE "Step2_Track58_075"
    INDEX 01 01:27:66
  TRACK 76 AUDIO
    TITLE "Step2_Track58_076"
    INDEX 01 01:28:46
  TRACK 77 AUDIO
    TITLE "Step2_Track58_077"
    INDEX 01 01:30:21
  TRACK 78 AUDIO
    TITLE "Step2_Track58_078"
    INDEX 01 01:30:53
  TRACK 79 AUDIO
    TITLE "Step2_Track58_079"
    INDEX 01 01:33:12
  TRACK 80 AUDIO
    TITLE "Step2_Track58_080"
    INDEX 01 01:33:61
  TRACK 81 AUDIO
    TITLE "Step2_Track58_081"
    INDEX 01 01:35:15
  TRACK 82 AUDIO
    TITLE "Step2_Track58_082"
    INDEX 01 01:35:48
  TRACK 83 AUDIO
    TITLE "Step2_Track58_083"
    INDEX 01 01:37:57
  TRACK 84 AUDIO
    TITLE "Step2_Track58_084"
    INDEX 01 01:38:37
  TRACK 85 AUDIO
    TITLE "Step2_Track58_085"
    INDEX 01 01:40:12
  TRACK 86 AUDIO
    TITLE "Step2_Track58_086"
    INDEX 01 01:40:51
  TRACK 87 AUDIO
    TITLE "Step2_Track58_087"
    INDEX 01 01:42:36
  TRACK 88 AUDIO
    TITLE "Step2_Track58_088"
    INDEX 01 01:43:08
  TRACK 89 AUDIO
    TITLE "Step2_Track58_089"
    INDEX 01 01:44:63
  TRACK 90 AUDIO
    TITLE "Step2_Track58_090"
    INDEX 01 01:45:23
  TRACK 91 AUDIO
    TITLE "Step2_Track58_091"
    INDEX 01 01:47:18
  TRACK 92 AUDIO
    TITLE "Step2_Track58_092"
    INDEX 01 01:47:65
  TRACK 93 AUDIO
    TITLE "Step2_Track58_093"
    INDEX 01 01:49:42
  TRACK 94 AUDIO
    TITLE "Step2_Track58_094"
    INDEX 01 01:50:06
  TRACK 95 AUDIO
    TITLE "Step2_Track58_095"
    INDEX 01 01:52:19
  TRACK 96 AUDIO
    TITLE "Step2_Track58_096"
    INDEX 01 01:52:72
  TRACK 97 AUDIO
    TITLE "Step2_Track58_097"
    INDEX 01 01:54:53
  TRACK 98 AUDIO
    TITLE "Step2_Track58_098"
    INDEX 01 01:55:16
  TRACK 99 AUDIO
    TITLE "Step2_Track58_099"
    INDEX 01 01:57:22
  TRACK 100 AUDIO
    TITLE "Step2_Track58_100"
    INDEX 01 01:57:75
  TRACK 101 AUDIO
    TITLE "Step2_Track58_101"
    INDEX 01 01:59:54
  TRACK 102 AUDIO
    TITLE "Step2_Track58_102"
    INDEX 01 02:00:26
  TRACK 103 AUDIO
    TITLE "Step2_Track58_103"
    INDEX 01 02:04:20
  TRACK 104 AUDIO
    TITLE "Step2_Track58_104"
    INDEX 01 02:04:69
  TRACK 105 AUDIO
    TITLE "Step2_Track58_105"
    INDEX 01 02:06:54
  TRACK 106 AUDIO
    TITLE "Step2_Track58_106"
    INDEX 01 02:07:07
  TRACK 107 AUDIO
    TITLE "Step2_Track58_107"
    INDEX 01 02:10:09
  TRACK 108 AUDIO
    TITLE "Step2_Track58_108"
    INDEX 01 02:10:58
  TRACK 109 AUDIO
    TITLE "Step2_Track58_109"
    INDEX 01 02:12:41
  TRACK 110 AUDIO
    TITLE "Step2_Track58_110"
    INDEX 01 02:12:73
  TRACK 111 AUDIO
    TITLE "Step2_Track58_111"
    INDEX 01 02:15:03
  TRACK 112 AUDIO
    TITLE "Step2_Track58_112"
    INDEX 01 02:15:59
  TRACK 113 AUDIO
    TITLE "Step2_Track58_113"
    INDEX 01 02:17:21
  TRACK 114 AUDIO
    TITLE "Step2_Track58_114"
    INDEX 01 02:17:56
  TRACK 115 AUDIO
    TITLE "Step2_Track58_115"
    INDEX 01 02:19:67
  TRACK 116 AUDIO
    TITLE "Step2_Track58_116"
    INDEX 01 02:20:49
  TRACK 117 AUDIO
    TITLE "Step2_Track58_117"
    INDEX 01 02:22:28
  TRACK 118 AUDIO
    TITLE "Step2_Track58_118"
    INDEX 01 02:22:61
  TRACK 119 AUDIO
    TITLE "Step2_Track58_119"
    INDEX 01 02:24:72
  TRACK 120 AUDIO
    TITLE "Step2_Track58_120"
    INDEX 01 02:25:52
  TRACK 121 AUDIO
    TITLE "Step2_Track58_121"
    INDEX 01 02:27:06
  TRACK 122 AUDIO
    TITLE "Step2_Track58_122"
    INDEX 01 02:27:41
  TRACK 123 AUDIO
    TITLE "Step2_Track58_123"
    INDEX 01 02:29:42
  TRACK 124 AUDIO
    TITLE "Step2_Track58_124"
    INDEX 01 02:30:24
  TRACK 125 AUDIO
    TITLE "Step2_Track58_125"
    INDEX 01 02:32:01
  TRACK 126 AUDIO
    TITLE "Step2_Track58_126"
    INDEX 01 02:32:28
  TRACK 127 AUDIO
    TITLE "Step2_Track58_127"
    INDEX 01 02:35:07
  TRACK 128 AUDIO
    TITLE "Step2_Track58_128"
    INDEX 01 02:35:58
  TRACK 129 AUDIO
    TITLE "Step2_Track58_129"
    INDEX 01 02:37:35
  TRACK 130 AUDIO
    TITLE "Step2_Track58_130"
    INDEX 01 02:37:67
  TRACK 131 AUDIO
    TITLE "Step2_Track58_131"
    INDEX 01 02:40:44
  TRACK 132 AUDIO
    TITLE "Step2_Track58_132"
    INDEX 01 02:41:22
  TRACK 133 AUDIO
    TITLE "Step2_Track58_133"
    INDEX 01 02:43:03
  TRACK 134 AUDIO
    TITLE "Step2_Track58_134"
    INDEX 01 02:43:42
  TRACK 135 AUDIO
    TITLE "Step2_Track58_135"
    INDEX 01 02:45:64
  TRACK 136 AUDIO
    TITLE "Step2_Track58_136"
    INDEX 01 02:46:34
  TRACK 137 AUDIO
    TITLE "Step2_Track58_137"
    INDEX 01 02:48:14
  TRACK 138 AUDIO
    TITLE "Step2_Track58_138"
    INDEX 01 02:48:43
  TRACK 139 AUDIO
    TITLE "Step2_Track58_139"
    INDEX 01 02:50:52
  TRACK 140 AUDIO
    TITLE "Step2_Track58_140"
    INDEX 01 02:51:40
  TRACK 141 AUDIO
    TITLE "Step2_Track58_141"
    INDEX 01 02:53:15
  TRACK 142 AUDIO
    TITLE "Step2_Track58_142"
    INDEX 01 02:53:60
  TRACK 143 AUDIO
    TITLE "Step2_Track58_143"
    INDEX 01 02:55:29
  TRACK 144 AUDIO
    TITLE "Step2_Track58_144"
    INDEX 01 02:56:07
  TRACK 145 AUDIO
    TITLE "Step2_Track58_145"
    INDEX 01 02:57:64
  TRACK 146 AUDIO
    TITLE "Step2_Track58_146"
    INDEX 01 02:58:16
  TRACK 147 AUDIO
    TITLE "Step2_Track58_147"
    INDEX 01 03:00:23
  TRACK 148 AUDIO
    TITLE "Step2_Track58_148"
    INDEX 01 03:01:09
  TRACK 149 AUDIO
    TITLE "Step2_Track58_149"
    INDEX 01 03:02:65
  TRACK 150 AUDIO
    TITLE "Step2_Track58_150"
    INDEX 01 03:03:23
  TRACK 151 AUDIO
    TITLE "Step2_Track58_151"
    INDEX 01 03:04:73
  TRACK 152 AUDIO
    TITLE "Step2_Track58_152"
    INDEX 01 03:05:45
  TRACK 153 AUDIO
    TITLE "Step2_Track58_153"
    INDEX 01 03:07:05
  TRACK 154 AUDIO
    TITLE "Step2_Track58_154"
    INDEX 01 03:07:39
  TRACK 155 AUDIO
    TITLE "Step2_Track58_155"
    INDEX 01 03:09:75
  TRACK 156 AUDIO
    TITLE "Step2_Track58_156"
    INDEX 01 03:10:60
  TRACK 157 AUDIO
    TITLE "Step2_Track58_157"
    INDEX 01 03:12:38
  TRACK 158 AUDIO
    TITLE "Step2_Track58_158"
    INDEX 01 03:13:02
  TRACK 159 AUDIO
    TITLE "Step2_Track58_159"
    INDEX 01 03:16:06
  TRACK 160 AUDIO
    TITLE "Step2_Track58_160"
    INDEX 01 03:16:55
  TRACK 161 AUDIO
    TITLE "Step2_Track58_161"
    INDEX 01 03:18:13
  TRACK 162 AUDIO
    TITLE "Step2_Track58_162"
    INDEX 01 03:18:52
  TRACK 163 AUDIO
    TITLE "Step2_Track58_163"
    INDEX 01 03:21:27
  TRACK 164 AUDIO
    TITLE "Step2_Track58_164"
    INDEX 01 03:21:74
  TRACK 165 AUDIO
    TITLE "Step2_Track58_165"
    INDEX 01 03:23:51
  TRACK 166 AUDIO
    TITLE "Step2_Track58_166"
    INDEX 01 03:23:63
  TRACK 167 AUDIO
    TITLE "Step2_Track58_167"
    INDEX 01 03:26:10
  TRACK 168 AUDIO
    TITLE "Step2_Track58_168"
    INDEX 01 03:26:73
  TRACK 169 AUDIO
    TITLE "Step2_Track58_169"
    INDEX 01 03:28:52
  TRACK 170 AUDIO
    TITLE "Step2_Track58_170"
    INDEX 01 03:29:13
  TRACK 171 AUDIO
    TITLE "Step2_Track58_171"
    INDEX 01 03:31:41
  TRACK 172 AUDIO
    TITLE "Step2_Track58_172"
    INDEX 01 03:32:25
  TRACK 173 AUDIO
    TITLE "Step2_Track58_173"
    INDEX 01 03:34:06
  TRACK 174 AUDIO
    TITLE "Step2_Track58_174"
    INDEX 01 03:34:45
  TRACK 175 AUDIO
    TITLE "Step2_Track58_175"
    INDEX 01 03:37:36
  TRACK 176 AUDIO
    TITLE "Step2_Track58_176"
    INDEX 01 03:38:21
  TRACK 177 AUDIO
    TITLE "Step2_Track58_177"
    INDEX 01 03:39:72
  TRACK 178 AUDIO
    TITLE "Step2_Track58_178"
    INDEX 01 03:40:22
  TRACK 179 AUDIO
    TITLE "Step2_Track58_179"
    INDEX 01 03:42:51
  TRACK 180 AUDIO
    TITLE "Step2_Track58_180"
    INDEX 01 03:43:30
  TRACK 181 AUDIO
    TITLE "Step2_Track58_181"
    INDEX 01 03:45:04
  TRACK 182 AUDIO
    TITLE "Step2_Track58_182"
    INDEX 01 03:45:33
  TRACK 183 AUDIO
    TITLE "Step2_Track58_183"
    INDEX 01 03:47:67
  TRACK 184 AUDIO
    TITLE "Step2_Track58_184"
    INDEX 01 03:48:47
  TRACK 185 AUDIO
    TITLE "Step2_Track58_185"
    INDEX 01 03:50:31
  TRACK 186 AUDIO
    TITLE "Step2_Track58_186"
    INDEX 01 03:50:46
  TRACK 187 AUDIO
    TITLE "Step2_Track58_187"
    INDEX 01 03:53:33
  TRACK 188 AUDIO
    TITLE "Step2_Track58_188"
    INDEX 01 03:54:11
  TRACK 189 AUDIO
    TITLE "Step2_Track58_189"
    INDEX 01 03:55:65
  TRACK 190 AUDIO
    TITLE "Step2_Track58_190"
    INDEX 01 03:56:23
  TRACK 191 AUDIO
    TITLE "Step2_Track58_191"
    INDEX 01 03:57:68
  TRACK 192 AUDIO
    TITLE "Step2_Track58_192"
    INDEX 01 03:58:52
  TRACK 193 AUDIO
    TITLE "Step2_Track58_193"
    INDEX 01 04:00:15
  TRACK 194 AUDIO
    TITLE "Step2_Track58_194"
    INDEX 01 04:00:48
  TRACK 195 AUDIO
    TITLE "Step2_Track58_195"
    INDEX 01 04:02:06
  TRACK 196 AUDIO
    TITLE "Step2_Track58_196"
    INDEX 01 04:02:55
  TRACK 197 AUDIO
    TITLE "Step2_Track58_197"
    INDEX 01 04:04:27
  TRACK 198 AUDIO
    TITLE "Step2_Track58_198"
    INDEX 01 04:04:60
  TRACK 199 AUDIO
    TITLE "Step2_Track58_199"
    INDEX 01 04:07:37
  TRACK 200 AUDIO
    TITLE "Step2_Track58_200"
    INDEX 01 04:08:19
  TRACK 201 AUDIO
    TITLE "Step2_Track58_201"
    INDEX 01 04:09:53
  TRACK 202 AUDIO
    TITLE "Step2_Track58_202"
    INDEX 01 04:09:73
  TRACK 203 AUDIO
    TITLE "Step2_Track58_203"
    INDEX 01 04:11:52
  TRACK 204 AUDIO
    TITLE "Step2_Track58_204"
    INDEX 01 04:12:28
  TRACK 205 AUDIO
    TITLE "Step2_Track58_205"
    INDEX 01 04:14:06
  TRACK 206 AUDIO
    TITLE "Step2_Track58_206"
    INDEX 01 04:14:29
  TRACK 207 AUDIO
    TITLE "Step2_Track58_207"
    INDEX 01 04:16:61
  TRACK 208 AUDIO
    TITLE "Step2_Track58_208"
    INDEX 01 04:17:43
  TRACK 209 AUDIO
    TITLE "Step2_Track58_209"
    INDEX 01 04:19:22
  TRACK 210 AUDIO
    TITLE "Step2_Track58_210"
    INDEX 01 04:19:48
  TRACK 211 AUDIO
    TITLE "Step2_Track58_211"
    INDEX 01 04:22:17
  TRACK 212 AUDIO
    TITLE "Step2_Track58_212"
    INDEX 01 04:23:03
  TRACK 213 AUDIO
    TITLE "Step2_Track58_213"
    INDEX 01 04:24:61
  TRACK 214 AUDIO
    TITLE "Step2_Track58_214"
    INDEX 01 04:25:25
  TRACK 215 AUDIO
    TITLE "Step2_Track58_215"
    INDEX 01 04:27:51
  TRACK 216 AUDIO
    TITLE "Step2_Track58_216"
    INDEX 01 04:28:27
  TRACK 217 AUDIO
    TITLE "Step2_Track58_217"
    INDEX 01 04:30:12
  TRACK 218 AUDIO
    TITLE "Step2_Track58_218"
    INDEX 01 04:30:40
  TRACK 219 AUDIO
    TITLE "Step2_Track58_219"
    INDEX 01 04:32:48
  TRACK 220 AUDIO
    TITLE "Step2_Track58_220"
    INDEX 01 04:33:22
  TRACK 221 AUDIO
    TITLE "Step2_Track58_221"
    INDEX 01 04:34:75
  TRACK 222 AUDIO
    TITLE "Step2_Track58_222"
    INDEX 01 04:35:27
  TRACK 223 AUDIO
    TITLE "Step2_Track58_223"
    INDEX 01 04:38:63
  TRACK 224 AUDIO
    TITLE "Step2_Track58_224"
    INDEX 01 04:39:41
  TRACK 225 AUDIO
    TITLE "Step2_Track58_225"
    INDEX 01 04:41:24
  TRACK 226 AUDIO
    TITLE "Step2_Track58_226"
    INDEX 01 04:41:53
  TRACK 227 AUDIO
    TITLE "Step2_Track58_227"
    INDEX 01 04:43:42
  TRACK 228 AUDIO
    TITLE "Step2_Track58_228"
    INDEX 01 04:44:18
  TRACK 229 AUDIO
    TITLE "Step2_Track58_229"
    INDEX 01 04:46:04
  TRACK 230 AUDIO
    TITLE "Step2_Track58_230"
    INDEX 01 04:46:35
  TRACK 231 AUDIO
    TITLE "Step2_Track58_231"
    INDEX 01 04:48:48
